<?xml version="1.0" standalone="no"?>
<!DOCTYPE svg PUBLIC "-//W3C//DTD SVG 20010904//EN"
 "http://www.w3.org/TR/2001/REC-SVG-20010904/DTD/svg10.dtd">
<svg version="1.0" xmlns="http://www.w3.org/2000/svg"
 width="398.000000pt" height="398.000000pt" viewBox="0 0 398.000000 398.000000"
 preserveAspectRatio="xMidYMid meet">
<metadata>
Created by potrace 1.14, written by Peter Selinger 2001-2017
</metadata>
<g transform="translate(0.000000,398.000000) scale(0.100000,-0.100000)"
fill="#000000" stroke="none">
<path d="M1829 3976 c-2 -2 -35 -7 -74 -11 -151 -14 -380 -75 -545 -144 -238
-100 -501 -284 -668 -468 -114 -125 -119 -132 -207 -263 -133 -201 -212 -377
-270 -605 -34 -132 -38 -155 -54 -280 -13 -99 -5 -413 12 -520 112 -682 549
-1248 1177 -1521 147 -63 321 -112 530 -149 77 -14 416 -13 520 2 271 37 581
148 788 282 34 23 67 41 72 41 6 0 10 3 10 8 0 4 17 18 38 32 20 14 39 27 42
30 3 3 28 23 55 44 50 40 207 195 255 251 129 153 240 336 313 516 48 117 50
123 52 129 0 3 10 37 22 75 24 77 58 237 70 330 10 78 10 382 0 465 -16 139
-62 328 -108 451 -11 30 -25 67 -31 84 -13 34 -101 210 -120 239 -7 11 -29 45
-48 75 -67 107 -156 216 -260 321 -128 129 -155 150 -300 248 -191 129 -370
211 -585 270 -101 27 -135 35 -220 48 -16 2 -43 7 -60 10 -34 7 -400 15 -406
10z"/>
</g>
</svg>
